<svg width="558" height="261" viewBox="0 0 558 261" fill="none" xmlns="http://www.w3.org/2000/svg">
<g clip-path="url(#clip0_1601_1484)">
<path d="M91.4576 227.107C91.4576 184.721 11.1809 185.036 11.1809 142.689C11.1809 122.558 28.189 105.926 54.8036 105.926C79.4102 105.926 98.4262 118.39 98.4262 137.577H80.0008C80.0008 122.558 78.1897 109.268 56.969 109.268C32.756 109.268 28.1496 126.529 28.1496 136.123C28.1496 175.481 110.592 171.47 110.592 217.985C110.592 243.11 86.182 261 57.7564 261C24.3307 261 -0.0791016 239.257 -0.0791016 213.66H18.3464C18.3464 235.089 27.9528 257.658 58.5831 257.658C84.0166 257.658 91.4183 239.728 91.4183 227.107" fill="#FFFDE8"/>
<path d="M195.947 107.498V116.267L161.301 110.683H143.112V160.265H153.506L188.113 159.478V169.858L152.522 163.449H143.112V256.203H163.663L198.27 250.62V259.427H124.687V107.498H195.947Z" fill="#FFFDE8"/>
<path d="M230.2 107.498V256.203H241.381L275.988 250.62V260.214L240.357 259.427H211.774V107.498H230.2Z" fill="#FFFDE8"/>
<path d="M360.674 107.498V116.267L326.028 110.683H307.839V160.265H318.232L352.879 159.478V169.858L317.248 163.449H307.839V256.203H328.39L362.997 250.62V259.427H289.413V107.498H360.674Z" fill="#FFFDE8"/>
<path d="M367.682 107.498H387.288L467.722 222.31V165.848L460.754 106.201H472.762L471.738 166.674V259.427H467.722L383.666 131.798V200.567L390.674 260.214H378.666L379.69 199.78V125.703L367.682 107.498Z" fill="#FFFDE8"/>
<path d="M557.999 107.498V116.267L523.392 110.683H505.164V160.265H515.558L550.204 159.478V169.858L514.573 163.449H505.164V256.203H523.392L557.999 250.62V259.427H486.738V107.498H557.999Z" fill="#FFFDE8"/>
<path d="M337.563 96.4497H314.729V90.5912L337.682 93.2648L337.563 96.4497Z" fill="#FFFDE8"/>
<path d="M150.002 93.2648L172.955 90.5912V96.4497H150.12L150.002 93.2648Z" fill="#FFFDE8"/>
<path d="M156.931 0H166.104L188.742 57.5238L202.797 22.8051L209.215 0H215.396L204.923 22.8051L187.443 66.2526H182.679L156.931 0Z" fill="#FFFDE8"/>
<path d="M234.727 0H225.554V66.2526H234.727V0Z" fill="#FFFDE8"/>
<path d="M258.862 0V64.8372H267.051L284.335 62.3994V66.6065L266.578 66.2526H249.688V0H258.862Z" fill="#FFFDE8"/>
<path d="M303.154 0V64.8372H311.304L328.587 62.3994V66.6065L310.831 66.2526H293.98V0H303.154Z" fill="#FFFDE8"/>
<path d="M379.611 38.9259L365.556 7.6279L352.485 38.9259H379.611ZM336.934 66.2526L348.312 43.9587L364.493 5.11148L362.17 0H371.344L401.068 66.2526H391.895L380.241 40.3021H351.934L350.438 43.9194L343.154 66.2133H336.973L336.934 66.2526Z" fill="#FFFDE8"/>
</g>
<defs>
<clipPath id="clip0_1601_1484">
<rect width="558" height="261" fill="white"/>
</clipPath>
</defs>
</svg>
